<svg width="1155" height="170" viewBox="0 0 1155 170" fill="none" xmlns="http://www.w3.org/2000/svg">
<path d="M1123.33 148.758L1123.78 150.096C1121.86 151.708 1117.77 152.14 1115.32 152.848L1107.15 155.316C1105.59 155.81 1103.48 156.697 1101.82 156.569C1101.59 156.552 1101.37 156.507 1101.16 156.445L1100.72 155.623C1102.48 154.439 1105.99 153.864 1108.09 153.259L1123.33 148.758Z" fill="#2F79A6"/>
<path d="M1040.86 154.324L1065.32 154.327C1065.48 154.97 1065.38 155.539 1065.3 156.184C1064.82 156.499 1064.47 156.512 1063.92 156.523L1046.16 156.485C1044.99 156.478 1042.27 156.816 1041.24 156.446C1041.15 156.414 1040.93 156.144 1040.85 156.066L1040.86 154.324Z" fill="#65B9CF"/>
<path d="M1107.07 68.9951L1107.22 69.0669C1109.66 70.1278 1112.26 67.4718 1114.49 70.6742L1113.27 71.9344C1113.77 73.6881 1116.84 74.2482 1117.37 76.0306C1115.72 77.8163 1114.01 78.384 1111.7 78.9219L1102.73 73.0538C1104.38 71.9396 1105.75 70.4764 1107.07 68.9951Z" fill="#E56830"/>
<path d="M1090.43 57.0187L1107.07 68.9951C1105.75 70.4764 1104.38 71.9396 1102.73 73.0538L1090.79 65.5602L1090.43 57.0187Z" fill="#B23612"/>
<path d="M1106.56 133.12L1110.65 143.813C1106.68 144.962 1102.57 146.997 1098.54 147.66C1097.82 146.576 1097.37 145.157 1096.83 143.959L1093.65 137.209L1106.56 133.12Z" fill="#B23612"/>
<path d="M1043.63 145.711C1047.62 146.516 1051.87 147.124 1055.94 147.146C1058.45 148.404 1064.12 149.861 1064.99 152.6C1065.16 153.155 1065.25 153.75 1065.32 154.327L1040.86 154.324C1042.05 151.724 1042.74 148.461 1043.63 145.711Z" fill="#F8BC57"/>
<path d="M1073.9 31.2581L1073.42 30.9963C1072.07 30.2005 1072.16 29.5633 1071.31 28.4508C1070.34 27.1817 1069.4 27.5307 1068.92 25.6148C1069.34 24.5563 1070 23.8889 1070.78 23.0939C1070.55 22.4152 1070.21 21.59 1070.15 20.8781C1070.11 20.2753 1070.63 19.6167 1071.03 19.212L1071.15 19.0925C1072.31 17.9299 1074.31 17.9921 1075.85 17.8355L1075.96 17.6172C1076.56 16.4195 1077.82 15.0354 1079.13 14.6404C1080.29 14.2917 1081.56 14.3704 1082.61 14.9866C1084.51 16.0991 1084.13 17.384 1084.62 19.1958C1085.71 19.1559 1087.1 18.9678 1088.15 19.191C1088.98 19.3681 1089.22 19.8536 1089.68 20.4984C1089.32 21.4277 1088.93 21.4645 1088.08 21.933L1080.39 23.6266L1078.8 26.4259C1077.33 26.1959 1075.68 25.6983 1074.38 26.6644C1073.93 26.994 1073.73 27.4799 1073.52 27.9782C1073.57 28.7825 1073.8 29.1711 1074.24 29.8171L1073.9 31.2581Z" fill="#102874"/>
<path d="M1048.98 132.975L1061.95 137.213L1055.94 147.146C1051.87 147.124 1047.62 146.516 1043.63 145.711L1048.98 132.975Z" fill="#E56830"/>
<path d="M1110.65 143.813C1116.04 144.272 1119.33 144.919 1123.33 148.758L1108.09 153.259C1105.99 153.864 1102.48 154.439 1100.72 155.623C1100.61 155.489 1100.54 155.379 1100.48 155.211L1097.71 148.503L1098.54 147.66C1102.57 146.997 1106.68 144.962 1110.65 143.813Z" fill="#F28B30"/>
<path d="M1074.24 29.8171C1073.8 29.1711 1073.57 28.7825 1073.52 27.9782C1073.73 27.4799 1073.94 26.994 1074.38 26.6644C1075.68 25.6983 1077.33 26.1959 1078.8 26.4259L1080.39 23.6266L1088.08 21.933L1092.12 28.7659C1091.41 29.1247 1090.68 29.4382 1090.13 30.0262C1089.89 31.7311 1089.36 33.0095 1087.96 34.0816C1086.66 35.0832 1084.52 35.5892 1082.9 35.603C1082.39 36.8131 1082.53 38.3252 1082.52 39.6237C1078.98 39.7819 1075.99 39.0564 1072.72 37.7739L1073.9 31.2581L1074.24 29.8171Z" fill="#F28B30"/>
<path d="M1074.24 29.8171C1075.11 29.8389 1076.33 29.7296 1077.11 30.1363C1077.37 31.6689 1077.68 32.9098 1078.99 33.8609C1079.92 34.538 1081.71 35.546 1082.9 35.6029C1082.39 36.8131 1082.53 38.3252 1082.52 39.6237C1078.98 39.7819 1075.99 39.0564 1072.72 37.7739L1073.9 31.2581L1074.24 29.8171Z" fill="#D65327"/>
<path d="M1086.46 75.7361L1106.56 133.12L1093.65 137.209L1079.55 107.516L1086.46 75.7361Z" fill="#2F79A6"/>
<path d="M1072.72 37.7739C1075.99 39.0564 1078.98 39.7819 1082.52 39.6237C1084.84 43.0303 1086.91 46.5301 1088.87 50.1631C1089.21 50.7963 1090.23 52.4959 1090.09 53.1747C1090 53.6238 1089.91 53.9188 1089.64 54.2888C1089.87 55.1564 1090.04 56.2185 1090.43 57.0187L1090.79 65.5602C1090.57 68.3793 1090.4 71.0482 1089.66 73.7898C1088.59 74.18 1087.03 73.8221 1086.12 74.2882C1084.96 73.7757 1083.2 74.0102 1081.94 74.0049L1070.41 73.9851L1068.16 65.2531C1067.78 63.8973 1067.13 62.4454 1066.94 61.0697C1066.74 59.6045 1067.48 58.9847 1068.29 57.9049L1057.89 52.6553C1057.33 52.3797 1057.02 52.0904 1056.62 51.6106C1056.71 51.2841 1056.81 50.9678 1056.98 50.6708C1058.49 47.9348 1060.51 45.3361 1062.44 42.8863C1063.33 41.7503 1064.28 40.3347 1065.5 39.5337C1066.59 38.8183 1068.16 38.4785 1069.4 38.1117L1072.72 37.7739Z" fill="#3467AA"/>
<path d="M1057.89 52.6553C1057.33 52.3797 1057.02 52.0904 1056.62 51.6106C1056.71 51.2841 1056.81 50.9678 1056.98 50.6708C1058.49 47.9348 1060.51 45.3361 1062.44 42.8863C1063.33 41.7503 1064.28 40.3347 1065.5 39.5337C1066.59 38.8183 1068.16 38.4785 1069.4 38.1117C1069.71 38.8611 1069.71 39.2166 1070.51 39.545C1073.36 40.7141 1075.78 40.9134 1077.21 44.094C1078 45.8546 1078.3 47.3884 1077.6 49.2302C1076.15 52.9911 1073.27 55.5321 1070.64 58.4666C1069.77 58.5493 1069.08 58.2265 1068.29 57.9049L1057.89 52.6553Z" fill="#2F79A6"/>
<path d="M1057.89 52.6553L1068.29 57.9049C1067.48 58.9847 1066.74 59.6045 1066.94 61.0697C1067.13 62.4454 1067.78 63.8973 1068.16 65.2531L1070.41 73.9851L1081.94 74.0049C1083.2 74.0102 1084.96 73.7757 1086.12 74.2882L1086.46 75.7361L1079.55 107.516L1061.95 137.213L1048.98 132.975L1056.69 115.617C1057.68 113.404 1059.34 110.908 1059.8 108.544C1060.23 106.358 1060.06 104.011 1060.06 101.784L1060.04 90.4992C1060.04 89.1204 1060.4 86.4155 1060.03 85.1641C1059.76 84.2449 1058.38 83.136 1057.94 82.1126C1056.53 78.8287 1059.06 74.0315 1060.29 70.9542C1059.1 68.1138 1057.04 65.6389 1055.93 62.7375C1054.51 59.0477 1056.38 56.0212 1057.89 52.6553Z" fill="#65B9CF"/>
<path d="M1057.89 52.6553L1068.29 57.9049C1067.48 58.9847 1066.74 59.6045 1066.94 61.0697C1067.13 62.4454 1067.78 63.8973 1068.16 65.2531L1070.41 73.9851C1070.75 75.3745 1071.89 81.5473 1072.94 82.0743C1073.65 82.431 1074.78 81.9791 1075.63 82.5819C1076.82 83.4233 1076.74 84.3337 1076.94 85.6411C1076.69 86.2997 1076.41 87.0656 1075.84 87.5151C1074.7 88.4239 1072.89 88.8802 1071.47 88.7342C1070.54 88.2959 1069.66 87.821 1068.99 87.0188C1067.8 85.5887 1066.95 83.4076 1066.08 81.7575L1060.29 70.9542C1059.1 68.1138 1057.04 65.6389 1055.93 62.7375C1054.51 59.0477 1056.38 56.0212 1057.89 52.6553Z" fill="#E56830"/>
<path d="M968.346 148.411C968.645 149.181 968.917 149.435 968.589 150.215C963.991 152.398 958.329 153.25 953.379 154.377C951.318 154.846 949.2 155.6 947.099 155.815C946.408 155.389 946.228 154.768 945.944 154.042L960.435 150.547C963.016 149.923 965.924 149.495 968.346 148.411Z" fill="#65B9CF"/>
<path d="M928.833 153.18C928.877 154.01 928.849 154.521 928.497 155.284C920.339 155.407 911.853 156.14 903.754 155.145L903.726 153.187L928.833 153.18Z" fill="#2F79A6"/>
<path d="M964.378 69.3509C965.685 68.8201 967.471 68.2644 968.857 68.8648C969.049 68.948 969.217 69.0453 969.384 69.1663L968.102 70.7824C969.54 71.6381 971.897 72.6478 972.341 74.4049C972.433 74.764 972.265 75.2827 972.193 75.6547C971.302 76.7946 969.788 77.9065 968.306 78.0468C966.312 78.2354 964.41 76.1464 962.988 74.8915L961.07 73.156L964.378 69.3509Z" fill="#E56830"/>
<path d="M945.569 55.1856L964.378 69.3509L961.07 73.156L946.46 66.4188L945.569 55.1856Z" fill="#B23612"/>
<path d="M905.716 146.257L919.264 146.199C920.978 147.488 922.816 148.372 924.721 149.324C925.556 149.74 926.771 150.173 927.434 150.82C928.022 151.391 928.473 152.453 928.833 153.18L903.726 153.187L905.716 146.257Z" fill="#F28B30"/>
<path d="M957.131 143.149C957.682 144.124 957.978 144.633 959.145 144.93C962.7 145.84 965.841 145.063 968.346 148.411C965.924 149.495 963.016 149.923 960.435 150.547L945.944 154.042C945.892 151.885 944.866 149.424 944.142 147.408L957.131 143.149Z" fill="#F8BC57"/>
<path d="M955.313 133.551C955.609 136.812 956.368 139.973 957.131 143.149L944.142 147.408C943.072 143.307 942.229 139.223 940.523 135.327L955.313 133.551Z" fill="#E56830"/>
<path d="M931.757 29.5846C930.914 29.0241 930.259 28.6183 929.839 27.6674C929.999 26.4538 930.207 26.4257 931.15 25.6532C932.564 25.3975 933.247 25.7674 934.582 26.2299L935.029 25.7835C935.149 24.927 935.297 24.3291 935.74 23.5856C938.657 22.6881 941.49 21.8686 944.514 21.4006L948.929 28.7707C948.501 28.8902 946.22 29.4012 946.084 29.6405C944.913 31.6743 945.768 33.4026 942.764 34.3053C941.29 34.7472 939.544 34.6969 938.018 34.6631C936.715 34.2204 934.913 33.7528 933.982 32.6824C933.175 31.7519 932.74 30.5665 931.865 29.6891L931.757 29.5846Z" fill="#E56830"/>
<path d="M930.199 32.078L928.517 31.0599L928.433 28.7032L926.827 27.7462C926.024 27.172 925.692 26.5893 925.541 25.6263C925.656 24.4739 926.36 23.7859 927.083 22.9575C926.659 22.1791 926.18 21.3946 926.088 20.4947C926.028 19.8851 926.24 19.2192 926.655 18.7495C928.01 17.2103 930.323 17.4793 932.173 17.4423L933.179 15.745C933.943 14.6642 935.085 13.862 936.412 13.6802C937.506 13.5306 938.661 13.7156 939.508 14.4326C940.798 15.5223 940.499 17.4427 940.671 18.9807C941.757 18.8456 943.411 18.4785 944.482 18.6325C945.373 18.7608 945.621 19.444 946.076 20.1316C945.788 20.9237 945.241 21.0126 944.514 21.4006C941.49 21.8686 938.657 22.6881 935.74 23.5856C935.297 24.3291 935.149 24.927 935.029 25.7835L934.582 26.2298C933.247 25.7674 932.564 25.3975 931.15 25.6532C930.207 26.4257 929.999 26.4538 929.839 27.6674C930.259 28.6183 930.914 29.0241 931.757 29.5846C931.322 30.425 930.91 31.4451 930.199 32.078Z" fill="#102874"/>
<path d="M909.52 133.856L924.182 135.997L919.264 146.199L905.716 146.257C907.082 142.43 908.92 137.85 909.52 133.856Z" fill="#B23612"/>
<path d="M914.034 74.302C915.105 76.4613 916.028 78.6085 916.823 80.8876C917.29 82.2166 917.786 85.0124 918.569 85.9899C918.605 86.0346 918.844 86.1676 918.92 86.1974C919.967 86.6168 921.25 86.3076 922.276 85.9996L928.401 98.6951C930.854 103.937 933.267 109.008 934.334 114.766L928.065 127.951C926.843 130.598 925.768 133.564 924.182 135.997L909.52 133.856C909.975 131.384 911.006 129.215 911.793 126.858L915.764 114.096C916.447 111.928 917.454 109.708 917.926 107.49C918.749 103.585 917.37 98.6493 916.811 94.7115L914.034 74.302Z" fill="#2F79A6"/>
<path d="M923.287 73.8484L942.62 73.6864L950.743 112.377L953.647 125.375C954.266 128.075 955.073 130.783 955.313 133.551L940.523 135.327C939.364 133.001 938.685 130.231 937.95 127.734L934.334 114.766C933.267 109.008 930.854 103.937 928.401 98.6952L922.276 85.9996L922.72 85.2975L924.594 86.1725C925.816 85.3663 924.801 84.3208 925.62 83.2122L927.095 83.5902L927.558 83.2697C927.055 81.7256 925.76 80.7558 925.017 79.3544C924.166 77.7549 923.767 75.6044 923.287 73.8484Z" fill="#65B9CF"/>
<path d="M931.757 29.5846L931.865 29.6891C932.74 30.5665 933.175 31.7519 933.982 32.6824C934.913 33.7528 936.715 34.2204 938.018 34.6631L938.277 38.4509C940.698 41.2858 942.129 44.4045 943.991 47.5767C944.746 48.8614 946.124 50.5249 946.364 51.9664L945.241 52.7859L945.569 55.1856L946.46 66.4188L946.751 73.6916L942.62 73.6864L923.287 73.8484C923.767 75.6044 924.166 77.7548 925.017 79.3544C925.76 80.7557 927.055 81.7256 927.558 83.2697L927.095 83.5902L925.62 83.2122C924.801 84.3208 925.816 85.3662 924.594 86.1725L922.72 85.2975L922.276 85.9996C921.25 86.3076 919.967 86.6168 918.92 86.1974C918.844 86.1676 918.605 86.0345 918.569 85.9899C917.786 85.0124 917.29 82.2166 916.823 80.8876C916.028 78.6085 915.105 76.4613 914.034 74.302C913.926 72.3514 912.896 70.2778 912.136 68.5033L908.297 59.6015C910.027 57.4447 911.541 55.1374 912.768 52.6588L912.1 52.001L912.164 51.3733C914.829 47.7431 917.702 42.0654 921.481 39.648C923.103 38.6118 925.001 38.1683 926.835 37.6797L928.213 37.1972C928.717 35.5088 929.124 33.487 930.199 32.078C930.91 31.4451 931.322 30.425 931.757 29.5846Z" fill="#3467AA"/>
<path d="M930.531 40.4578C931.981 41.1422 933.275 42.3288 933.811 43.8849C934.646 46.3124 934.046 48.7367 932.912 50.9595C930.974 54.7598 927.043 59.4009 922.88 60.6767C921.873 60.9856 921.138 61.1786 920.147 60.8231C920.83 59.7274 922.081 58.6429 922.972 57.6839L924.126 58.5227C924.877 58.3224 925.513 57.5347 926.06 56.9935C927.926 55.1547 929.791 53.2137 931.162 50.9603C932.336 49.0343 933.335 46.4632 932.772 44.1869L932.72 43.9943C932.372 42.601 931.414 41.5511 930.531 40.4578Z" fill="#102874"/>
<path d="M931.757 29.5846L931.865 29.6891C932.74 30.5665 933.175 31.7519 933.982 32.6824C934.913 33.7528 936.715 34.2204 938.018 34.6631L938.277 38.4509L928.213 37.1972C928.717 35.5088 929.124 33.487 930.199 32.078C930.91 31.4451 931.322 30.425 931.757 29.5846Z" fill="#D65327"/>
<path d="M912.768 52.6588L912.1 52.001L912.164 51.3733C914.829 47.7431 917.702 42.0655 921.481 39.648C923.103 38.6118 925.001 38.1683 926.835 37.6797L926.939 38.6568C927.55 39.1064 929.883 40.523 930.531 40.4578C931.414 41.5512 932.372 42.6011 932.72 43.9943L932.772 44.1869C933.335 46.4632 932.336 49.0343 931.162 50.9604C929.791 53.2137 927.926 55.1547 926.06 56.9935C925.513 57.5347 924.877 58.3224 924.126 58.5227L922.972 57.6839L912.768 52.6588Z" fill="#2F79A6"/>
<path d="M912.768 52.6588L922.972 57.6839C922.081 58.6429 920.83 59.7274 920.147 60.8231C919.032 63.6037 922.28 70.8926 923.287 73.8484C923.767 75.6044 924.166 77.7549 925.017 79.3544C925.76 80.7558 927.055 81.7256 927.558 83.2697L927.095 83.5902L925.62 83.2122C924.801 84.3208 925.816 85.3663 924.594 86.1725L922.72 85.2975L922.276 85.9996C921.25 86.3076 919.967 86.6168 918.92 86.1974C918.844 86.1677 918.605 86.0346 918.569 85.9899C917.786 85.0124 917.29 82.2166 916.823 80.8876C916.028 78.6085 915.105 76.4613 914.034 74.302C913.926 72.3514 912.896 70.2778 912.136 68.5033L908.297 59.6015C910.027 57.4447 911.541 55.1374 912.768 52.6588Z" fill="#E56830"/>
<path d="M808.018 30.1955C808.29 31.6661 808.387 32.7169 809.742 33.6187C810.705 34.2589 812.778 34.7679 813.954 34.9673L813.163 36.0217L811.687 38.627C808.503 37.4071 805.038 37.1795 801.753 36.3261L804.432 32.8844L806.112 30.8571L808.018 30.1955Z" fill="#D65327"/>
<path d="M808.017 30.1955C808.29 31.6661 808.386 32.7169 809.742 33.6187C810.705 34.2589 812.778 34.7679 813.953 34.9673L813.163 36.0217C810.284 35.1514 807.047 34.3994 804.432 32.8844L806.112 30.8571L808.017 30.1955Z" fill="#B23612"/>
<path d="M795.159 153.512L819.164 153.515C819.456 153.661 819.629 153.968 819.821 154.227L819.517 155.488C817.134 156.043 814.074 155.72 811.615 155.731L801.348 155.734C799.442 155.715 797.152 155.814 795.331 155.227L795.159 153.512Z" fill="#65B9CF"/>
<path d="M796.867 146.497C800.734 146.527 805.114 146.13 808.912 146.669L814.888 149.438C816.176 150.012 817.68 150.473 818.57 151.61C818.735 152.211 818.847 152.982 819.164 153.515L795.159 153.512L796.867 146.497Z" fill="#F8BC57"/>
<path d="M772.345 118.979C775.718 120.851 779.613 123.249 782.545 125.758L772.67 133.22C772.173 132.235 771.13 131.834 770.195 131.273L763.319 127.177L772.345 118.979Z" fill="#D65327"/>
<path d="M799.731 134.689C802.98 134.758 806.112 134.878 809.337 135.291C810.223 135.405 811.543 135.408 812.353 135.772L808.912 146.669C805.114 146.13 800.734 146.527 796.867 146.498L799.731 134.689Z" fill="#E56830"/>
<path d="M756.981 132.099C759.039 131.546 761.665 128.604 763.319 127.177L770.195 131.273C771.13 131.834 772.173 132.235 772.67 133.22C772.794 135.143 776.38 139.162 776.336 140.001C776.28 140.993 774.563 143.684 774.062 144.721C772.225 143.851 770.348 142.106 768.666 140.898C764.805 138.121 760.351 135.457 756.981 132.099Z" fill="#F8BC57"/>
<path d="M806.112 30.8571C805.378 30.6884 804.207 30.4381 803.662 29.8714C802.908 29.0818 803.305 28.5615 802.166 27.8788C801.139 27.2649 800.317 26.6824 800.004 25.479C800.405 24.2462 801.111 23.4715 801.953 22.5314C801.432 21.7245 801.091 21.0398 800.846 20.1057C801.051 19.4154 801.115 18.9456 801.628 18.4244C802.984 17.0548 804.837 17.2905 806.618 17.2841L808.499 15.0651C809.385 14.0208 810.288 13.7378 811.631 13.645C812.582 13.5796 813.416 13.7531 814.114 14.3942C815.382 15.5547 815.269 17.1468 815.365 18.7478C816.809 18.5883 818.161 18.4596 819.613 18.5948C820.074 19.3533 819.93 19.8244 819.894 20.6995L811.527 22.4733C810.974 23.365 810.248 24.9865 809.273 25.4116C808.242 25.0919 807.613 25.0366 806.566 25.3066C805.852 25.9344 805.535 26.1217 805.222 27.0404C805.551 27.9224 805.691 28.5497 806.622 28.9671L807.809 29.4071L808.018 30.1955L806.112 30.8571Z" fill="#102874"/>
<path d="M819.894 20.6995L819.918 20.9256C820.251 23.4917 822.729 26.3853 824.233 28.4589C823.644 29.1726 822.761 28.9474 822.24 29.4043C822.132 29.5016 821.887 30.4208 821.819 30.6065C820.323 34.7191 817.788 34.5047 813.954 34.9673C812.778 34.7679 810.705 34.2589 809.742 33.6187C808.386 32.7169 808.29 31.6661 808.018 30.1955L807.809 29.4072L806.622 28.9672C805.691 28.5498 805.551 27.9225 805.222 27.0404C805.535 26.1217 805.852 25.9344 806.566 25.3067C807.612 25.0366 808.242 25.0919 809.273 25.4116C810.248 24.9865 810.974 23.365 811.527 22.4733L819.894 20.6995Z" fill="#E56830"/>
<path d="M801.753 36.3261C805.037 37.1794 808.503 37.4071 811.687 38.627C815.377 40.7346 818.642 43.1966 819.849 47.5058C820.616 50.2273 820.467 53.2779 820.487 56.0806L820.555 68.8992L811.511 55.0121L813.817 54.4457C814.214 53.4575 814.066 52.5315 813.697 51.5175C812.522 48.2736 811.844 45.1205 809.116 42.7885C806.951 40.9388 803.056 40.5654 800.345 40.9453C799.166 41.11 798.183 41.5468 796.927 41.6324L801.753 36.3261Z" fill="#3467AA"/>
<path d="M792.969 46.8966C793.795 48.2671 793.787 49.6037 794.425 51.027C795.383 53.162 796.98 54.767 798.391 56.5759C798.961 57.3049 799.655 58.438 800.501 58.8098L801.676 58.4485L814.29 73.382L794.701 73.4183L794.32 74.3734L794.12 73.52C793.595 73.4114 793.346 73.3008 792.981 72.9032L792.7 57.4272C792.64 53.9314 792.359 50.3513 792.969 46.8966Z" fill="#3467AA"/>
<path d="M796.928 41.6324C798.183 41.5468 799.166 41.11 800.345 40.9453C803.056 40.5655 806.951 40.9389 809.117 42.7885C811.844 45.1205 812.522 48.2736 813.697 51.5175C814.066 52.5315 814.214 53.4575 813.817 54.4457L811.511 55.0121L801.676 58.4486L800.501 58.8098C799.655 58.4381 798.961 57.3049 798.392 56.5759C796.98 54.7671 795.383 53.1621 794.425 51.027C793.787 49.6037 793.795 48.2671 792.969 46.8967C793.847 44.8145 795.387 43.2317 796.928 41.6324Z" fill="#2F79A6"/>
<path d="M801.676 58.4485L811.511 55.0121L820.556 68.8992L824.073 74.6822C824.426 75.2514 824.939 76.3482 825.473 76.7094C826.8 77.6024 828.657 77.7101 830.017 78.6592C830.651 79.1004 830.727 79.0802 830.807 79.8379L829.62 81.099C830.141 81.8595 831.052 82.8089 831.052 83.7216C830.514 84.1298 829.981 84.5964 829.387 84.9141C828.533 85.3012 827.478 85.8175 826.548 85.943C825.128 86.1348 824.915 85.8462 823.828 85.0085C822.689 84.3865 821.546 83.0322 820.596 82.1239C818.955 79.037 816.573 76.0115 814.291 73.382L801.676 58.4485Z" fill="#E56830"/>
<path d="M794.296 74.9228C795.524 76.7066 795.841 79.1238 796.394 81.1922L799.366 91.9888C800.405 95.544 801.973 99.2662 802.607 102.891C802.988 105.058 802.968 106.818 802.587 108.987C802.454 109.733 802.089 110.555 802.198 111.3C800.545 111.995 798.873 113.882 797.525 115.07L788.465 123.079C787.618 123.874 785.396 126.441 784.362 126.609C784.161 126.642 783.712 126.513 783.515 126.422C783.174 126.262 782.845 125.987 782.545 125.758C779.613 123.249 775.718 120.851 772.345 118.979L771.515 118.184C771.515 116.949 786.636 103.131 788.689 100.189C789.764 98.6506 790.085 94.8497 790.486 92.9334L794.296 74.9228Z" fill="#2F79A6"/>
<path d="M814.291 73.382C816.573 76.0115 818.955 79.037 820.596 82.1239L820.215 96.6823C820.183 100.619 820.279 104.677 819.785 108.587C819.168 113.492 817.563 118.297 816.553 123.144C815.727 127.121 815.117 131.764 813.504 135.478L812.353 135.772C811.543 135.408 810.224 135.405 809.337 135.291C806.112 134.878 802.98 134.758 799.731 134.689L798.54 134.318C797.999 132.965 801.709 114.424 802.198 111.3C802.09 110.555 802.455 109.733 802.587 108.987C802.968 106.818 802.988 105.058 802.607 102.891C801.973 99.2662 800.405 95.544 799.366 91.9888L796.394 81.1922C795.841 79.1238 795.524 76.7066 794.297 74.9228L794.321 74.3734L794.702 73.4183L814.291 73.382Z" fill="#65B9CF"/>
<path d="M773.455 142.882C773.982 143.244 774.341 143.488 774.629 144.137C773.951 144.815 773.78 145.032 772.886 145.188L756.981 132.219C756.992 131.518 757.477 131.227 757.909 130.749L758.876 130.801C761.752 134.015 765.554 136.565 768.85 139.223C770.285 140.38 771.887 142.049 773.455 142.882Z" fill="#65B9CF"/>
<path d="M656.755 31.1969C654.473 29.9482 654.954 28.8007 653.54 27.1716C652.806 26.3261 651.339 26.4726 650.398 25.3166C650.468 24.2852 651.236 23.6153 651.896 22.8981C653.191 24.1683 654.723 24.6858 656.524 24.6527L656.756 24.647C656.045 25.6816 655.611 25.993 655.782 27.2982C656.299 28.113 656.686 28.4889 657.508 28.9793C657.641 29.0584 657.722 29.1516 657.812 29.2758L656.755 31.1969Z" fill="#08185E"/>
<path d="M626.602 148.856C626.005 149.447 625.606 149.795 624.786 150.02C622.559 148.03 610.595 138.015 610.236 136.18L611.889 135.013L626.602 148.856Z" fill="#65B9CF"/>
<path d="M657.813 29.2758C658.074 29.5094 658.618 29.8699 658.71 30.1938C659.108 31.5962 659.826 33.0745 661.157 33.7864C662.134 34.3095 663.224 34.4568 664.304 34.6358L662.584 39.1985L653.466 37.2572C654.873 35.3752 655.985 33.4226 656.755 31.1969L657.813 29.2758Z" fill="#D65327"/>
<path d="M654.95 153.319L679.396 153.403C679.592 154.054 679.587 154.637 679.577 155.308C678.6 156.107 657.717 155.765 655.156 155.591C654.686 154.951 654.886 154.066 654.95 153.319Z" fill="#65B9CF"/>
<path d="M655.25 137.977L668.141 135.76L668.673 145.837C664.813 146.724 660.278 146.472 656.332 146.484L655.25 137.977Z" fill="#B23612"/>
<path d="M651.896 22.8981C651.895 22.6356 651.448 21.9628 651.322 21.6861C650.88 20.7213 650.884 20.0756 651.086 19.0418C652.93 17.1703 654.448 17.3804 656.922 17.3264L658.704 14.8978C659.406 14.046 660.673 13.7088 661.731 13.639C662.607 13.5809 663.682 13.8887 664.312 14.532C665.25 15.4916 664.973 17.3982 665.02 18.6647C666.421 18.586 668.642 18.1927 669.871 18.8873L670.262 20.5656C667.216 21.2223 664.167 21.7769 661.418 23.3245L661.062 25.584C659.581 25.7433 658.523 23.7762 656.756 24.647L656.524 24.6527C654.723 24.6858 653.191 24.1683 651.896 22.8981Z" fill="#102874"/>
<path d="M672.471 62.2745L682.654 73.7726C683.827 73.6657 685.67 73.239 686.692 73.8952L687.091 74.543C686.564 75.3545 685.663 75.4739 684.788 75.709C685.647 77.4079 687.464 79.1016 688.711 80.5669C687.809 81.7511 683.843 82.8337 682.415 83.1624C680.527 82.0726 679.116 80.197 677.742 78.5437C677.595 76.2285 675.676 75.1686 674.062 73.6645L672.471 62.2745Z" fill="#B23612"/>
<path d="M630.583 122.953C633.408 125.304 637.441 128.11 639.35 131.295C637.832 132.184 629.143 137.648 628.234 137.572L620.997 129.309L630.583 122.953Z" fill="#D65327"/>
<path d="M656.332 146.484C660.279 146.472 664.813 146.724 668.673 145.837C670.254 147.771 678.244 149.136 678.939 150.441C679.298 151.116 679.123 152.575 679.396 153.403L654.95 153.319C655.718 151.132 656.053 148.776 656.332 146.484Z" fill="#F28B30"/>
<path d="M670.262 20.5656C670.169 23.5269 670.677 24.6583 672.714 26.8287L674.321 28.4667C673.203 28.7285 672.107 28.9765 671.04 29.4109C670.959 30.7855 670.789 31.8604 669.731 32.8426C668.376 34.099 666.113 34.6326 664.304 34.6358C663.224 34.4567 662.134 34.3095 661.156 33.7864C659.826 33.0745 659.108 31.5962 658.71 30.1938C658.618 29.8699 658.074 29.5093 657.813 29.2758C657.722 29.1516 657.641 29.0584 657.508 28.9793C656.686 28.4889 656.299 28.113 655.782 27.2982C655.612 25.993 656.045 25.6816 656.757 24.647C658.523 23.7762 659.581 25.7433 661.062 25.584L661.418 23.3245C664.167 21.7768 667.216 21.2222 670.262 20.5656Z" fill="#E56830"/>
<path d="M611.889 135.013L620.997 129.309L628.233 137.572C627.836 137.93 627.155 138.328 627.125 138.87C627.034 140.496 627.588 142.794 628.442 144.175C628.837 144.814 629.579 145.544 629.73 146.265C628.635 147.076 627.53 147.85 626.602 148.856L611.889 135.013Z" fill="#F8BC57"/>
<path d="M650.793 124.516C652.636 123.457 654.459 121.718 656.141 120.394L667.149 111.764L669.344 127.269C669.722 129.793 670.427 132.422 670.521 134.965C669.822 135.578 669.035 135.588 668.141 135.76L655.25 137.977L653.277 137.805C652.53 136.462 652.498 134.397 652.263 132.862L650.793 124.516Z" fill="#2F79A6"/>
<path d="M653.466 37.2572L662.584 39.1985C667.586 42.4309 669.654 46.3215 670.898 52.0772C671.335 54.098 671.668 61.0467 672.471 62.2745L674.062 73.6645L672.609 73.7605C671.633 73.1595 655.222 73.8045 652.564 73.8662L646.792 60.1896C647.365 58.5625 648.813 57.3779 649.656 55.8848C646.617 54.4759 643.25 52.5757 640.005 51.7912L638.745 50.972L638.677 50.5126C640.917 47.0322 643.091 42.8774 645.826 39.8124C648.009 37.3641 650.459 37.4322 653.466 37.2572Z" fill="url(#paint0_linear_5_475)"/>
<path d="M640.005 51.7912C643.25 52.5757 646.617 54.4759 649.655 55.8847C648.813 57.3779 647.365 58.5625 646.792 60.1896L652.564 73.8662C655.222 73.8045 671.633 73.1595 672.609 73.7605C670.642 77.9775 670.721 83.7549 670.105 88.3764L667.149 111.764L656.141 120.394C654.459 121.718 652.636 123.457 650.793 124.516C648.759 125.777 642.071 131.97 640.132 131.581C639.859 131.526 639.602 131.41 639.35 131.295C637.44 128.11 633.408 125.304 630.583 122.953L629.899 122.007C630.462 120.487 647.426 107.701 650.103 105.592C650.154 101.982 649.415 98.0788 649.069 94.4685L648.289 86.4525C648.133 84.9581 648.099 83.308 647.495 81.9169C646.3 79.1621 642.95 75.6796 640.853 73.4761L639.814 73.3116C638.943 71.7212 639.441 68.682 639.595 66.938L634.68 59.2845C635.432 56.9492 638.468 53.8229 640.005 51.7912Z" fill="#65B9CF"/>
<path d="M640.005 51.7912C643.25 52.5757 646.617 54.4759 649.656 55.8847C648.813 57.3779 647.365 58.5625 646.792 60.1896L652.564 73.8662C653.054 75.409 653.971 78.701 654.879 79.9171C655.266 80.437 656.502 80.9723 657.059 81.3268C657.793 81.7943 658.351 82.4408 658.913 83.0983C659 83.7102 659.05 83.9086 658.815 84.4781C658.451 85.3582 658.071 85.7224 657.194 86.0798C656.084 86.5319 652.579 87.9388 651.429 87.3628L651.242 87.2559C650.5 86.8461 650.062 86.4549 649.632 85.7039C648.626 83.9469 648.793 82.8777 649.287 81.0239L643.768 73.3483L640.853 73.4761L639.815 73.3116C638.943 71.7212 639.441 68.682 639.595 66.938L634.68 59.2845C635.432 56.9492 638.468 53.8229 640.005 51.7912Z" fill="#E56830"/>
<path d="M639.595 66.938L643.768 73.3483L640.853 73.4761L639.815 73.3116C638.943 71.7212 639.441 68.682 639.595 66.938Z" fill="#3467AA"/>
<path d="M514.45 24.8159L517.919 28.3566L515.475 29.7297C514.637 29.4587 514.21 29.1838 513.617 28.5298L513.791 26.3047L512.599 25.1671C513.491 25.2249 513.673 25.3131 514.45 24.8159Z" fill="#E56830"/>
<path d="M547.018 147.707C547.533 148.186 547.686 148.304 547.864 149.015C545.865 150.354 542.721 150.839 540.399 151.453L525.252 155.13C524.379 154.58 524.38 154.234 524.019 153.287L547.018 147.707Z" fill="#65B9CF"/>
<path d="M463.002 143.406L476.54 150.213C478.405 151.157 480.603 152.594 482.584 153.186C483.276 153.62 483.847 153.805 484.174 154.568L482.928 155.815C482.734 155.795 482.531 155.77 482.345 155.711C480.712 155.187 478.97 154.071 477.424 153.293L466.233 147.414C465.042 146.752 462.544 145.74 461.887 144.597L463.002 143.406Z" fill="#2F79A6"/>
<path d="M498.9 26.0821L501.86 28.9975L501.8 29.1866C501.559 29.9727 501.548 30.6742 501.57 31.4902C503.429 34.1738 505.194 34.2248 508.032 35.1973L508.019 39.7256L499.915 39.0041L499.894 38.9522L497.562 38.4718C497.761 37.3397 499.617 35.0381 499.593 34.2975C499.573 33.7085 498.56 32.072 498.309 31.3925C497.786 29.9751 497.608 28.4891 497.414 26.9971L498.9 26.0821Z" fill="#D65327"/>
<path d="M519.729 137.506L530.505 134.959L533.699 143.499L522.389 146.24L519.729 137.506Z" fill="#E56830"/>
<path d="M476.811 130.738L487.354 135.021L482.531 140.099C481.694 140.972 480.78 142.101 479.664 142.601C479.041 141.732 477.688 141.095 476.789 140.525L470.758 136.629L476.811 130.738Z" fill="#B23612"/>
<path d="M515.787 61.3318C519.371 65.5173 522.972 70.2236 527.196 73.7531C528.619 73.755 529.577 73.5695 530.828 74.2977L531.088 74.8013C530.602 75.2558 530.128 75.4087 529.513 75.607C530.498 77.439 533.306 77.6724 533.306 80.2115C531.752 81.411 529.203 82.8631 527.277 83.2613C525.786 82.0558 522.128 78.9988 521.95 76.9789L521.94 76.5667L516.175 70.8931L515.787 61.3318Z" fill="#B23612"/>
<path d="M498.9 26.0821C499.413 25.7916 500.035 25.5075 500.612 25.3754C501.917 25.0769 502.918 26.0115 503.941 26.6743C504.327 25.1791 504.978 23.7729 505.581 22.3559C508.188 22.0889 510.843 21.6991 513.465 21.8555C513.69 22.9317 513.948 23.8367 514.45 24.8159C513.672 25.3131 513.491 25.225 512.599 25.1671L513.791 26.3047L513.617 28.5298C514.21 29.1838 514.637 29.4587 515.474 29.7297C515.627 30.3785 515.78 30.6965 515.548 31.3394C515.005 32.732 514.03 33.596 512.667 34.1785C511.194 34.8082 509.618 35.082 508.032 35.1973C505.194 34.2248 503.429 34.1738 501.57 31.4902C501.548 30.6742 501.559 29.9727 501.8 29.1866L501.86 28.9974L498.9 26.0821Z" fill="#E56830"/>
<path d="M515.548 31.3394C514.864 30.8446 512.44 31.0246 511.516 31.007C510.494 29.7409 508.908 27.9807 508.641 26.3486L509.145 25.6894C510.338 25.3574 511.344 24.9915 512.599 25.1671L513.791 26.3048L513.617 28.5298C514.21 29.1838 514.637 29.4587 515.474 29.7297C515.627 30.3785 515.78 30.6966 515.548 31.3394Z" fill="#E56830"/>
<path d="M497.414 26.9971C496.721 27.1758 495.754 27.359 495.052 27.2724C494.117 27.1575 493.755 26.5701 493.244 25.8814C493.276 24.8088 494.499 23.8818 495.156 23.0769L494.562 21.4445C494.272 20.4054 494.673 19.6073 495.177 18.7147C496.185 17.7075 498.246 17.7426 499.617 17.5902L500.835 15.3592C501.443 14.3739 502.211 13.947 503.334 13.7163C504.341 13.5096 505.862 13.6748 506.703 14.3057C508.053 15.3177 508.128 17.1604 508.366 18.7051C509.995 18.5459 512.272 18.0427 513.791 18.7031C514.009 19.8655 513.766 20.745 513.465 21.8555C510.843 21.6991 508.188 22.0889 505.581 22.3559C504.978 23.7729 504.327 25.1791 503.941 26.6743C502.918 26.0115 501.917 25.0769 500.612 25.3754C500.035 25.5075 499.413 25.7916 498.9 26.0821L497.414 26.9971Z" fill="#102874"/>
<path d="M533.699 143.499L542.317 143.597C543.1 143.606 544.469 143.416 545.068 143.896C545.584 145.334 546.063 146.498 547.018 147.707L524.019 153.287L522.389 146.24L533.699 143.499Z" fill="#F8BC57"/>
<path d="M463.003 143.406C465.755 141.539 468.278 138.87 470.758 136.629L476.789 140.525C477.688 141.095 479.041 141.732 479.664 142.601L479.181 143.356C480.735 145.633 484.152 147.69 483.59 150.831C483.446 151.636 482.96 152.467 482.584 153.186C480.603 152.594 478.405 151.157 476.54 150.213L463.003 143.406Z" fill="#F28B30"/>
<path d="M482.051 50.0658C485.501 51.6664 488.495 53.6711 491.729 55.6563L485.477 62.3262L491.899 74.3871C492.463 75.5755 493.029 76.9374 493.904 77.9278C495.656 79.9106 498.603 80.9218 497.519 84.1488C496.545 85.1392 495.592 85.7006 494.286 86.148L492.246 86.2585C491.485 85.9105 490.3 85.2653 489.848 84.545C488.948 83.1053 489.384 81.081 488.282 79.6405C483.324 73.1613 477.511 67.4064 472.744 60.7209C473.281 59.4372 474.685 58.2249 475.617 57.1914L482.051 50.0658Z" fill="#E56830"/>
<path d="M492.245 86.2585L494.286 86.1479L499.876 96.5884L504.491 104.53C505.948 107.012 507.309 109.085 507.932 111.952L490.872 136.417L487.354 135.021L476.811 130.738L475.692 130.037C475.671 129.932 475.558 129.567 475.58 129.485C475.668 129.153 476.409 128.347 476.638 128.032L479.53 123.997L487.684 111.88C488.821 110.273 490.796 108.432 491.597 106.683C491.883 106.059 491.723 103.599 491.757 102.761L492.245 86.2585Z" fill="#2F79A6"/>
<path d="M482.051 50.0658C481.706 49.7043 481.566 49.417 481.422 48.9389C483.596 45.8695 486.308 42.4107 489.141 39.9666C491.596 37.8485 494.568 38.2324 497.562 38.4718L499.894 38.9522L499.915 39.0041L508.019 39.7256C511.462 44.1796 513.297 48.6692 514.487 54.1663C515 56.5326 515.21 58.9831 515.787 61.3318L516.175 70.8931L516.108 73.5547C515.561 73.777 515.053 74.0017 514.464 74.0799L493.95 74.3161L491.899 74.3871L485.477 62.3262L491.729 55.6563C488.495 53.6711 485.501 51.6663 482.051 50.0658Z" fill="#3467AA"/>
<path d="M497.562 38.4718L499.894 38.9522L499.916 39.0041C501.283 40.212 503.005 41.3305 503.767 43.0188L503.826 43.1469C504.299 44.1864 504.202 46.1824 503.813 47.2406C503.125 49.1101 501.895 50.7729 500.967 52.5223C499.697 54.9149 498.836 57.7042 498.14 60.3123C497.409 63.0517 496.968 65.8681 496.667 68.6861C496.488 70.3652 496.517 72.1932 496.098 73.8253L493.95 74.3161L491.899 74.3871L485.477 62.3262L491.729 55.6563L494.353 57.4927C496.066 55.0598 498.018 52.8487 499.974 50.6145C500.956 49.4928 502.644 47.9034 503.05 46.4465C503.686 44.168 501.833 41.538 500.025 40.303C499.188 39.7311 498.161 39.5903 497.641 38.6266L497.562 38.4718Z" fill="#22478E"/>
<path d="M482.051 50.0658C481.706 49.7043 481.566 49.417 481.422 48.9389C483.596 45.8695 486.308 42.4107 489.141 39.9666C491.596 37.8485 494.568 38.2324 497.562 38.4718L497.641 38.6266C498.161 39.5903 499.188 39.7311 500.025 40.303C501.833 41.538 503.686 44.168 503.05 46.4465C502.644 47.9034 500.956 49.4928 499.974 50.6145C498.017 52.8487 496.066 55.0598 494.352 57.4927L491.729 55.6563C488.495 53.6711 485.501 51.6663 482.051 50.0658Z" fill="#2F79A6"/>
<path d="M493.95 74.3161L514.464 74.0799C515.833 81.6803 533.845 132.111 533.305 134.083L530.505 134.959L519.729 137.506C518.784 137.842 517.731 137.998 516.75 138.21L511.098 120.71C510.118 117.789 509.318 114.709 507.932 111.952C507.309 109.085 505.948 107.012 504.491 104.53L499.876 96.5883L494.286 86.1479C495.592 85.7006 496.545 85.1392 497.519 84.1488C498.603 80.9218 495.656 79.9106 493.904 77.9278C493.029 76.9374 492.463 75.5755 491.899 74.3871L493.95 74.3161Z" fill="#65B9CF"/>
<path d="M392.666 153.481L393.358 154.03V154.997C393.263 155.07 393.002 155.323 392.903 155.346C391.276 155.735 388.476 155.385 386.7 155.401L376.992 155.504C374.849 155.548 372.701 155.745 370.564 155.512C369.808 154.831 369.9 154.474 369.744 153.487L392.666 153.481Z" fill="#65B9CF"/>
<path d="M354.349 153.415L355.247 153.856C355.397 154.607 355.505 154.808 355.154 155.521C349.042 156.003 342.672 155.768 336.54 155.677C335.003 155.654 331.832 155.997 330.599 155.143L330.545 153.487L354.349 153.415Z" fill="#65B9CF"/>
<path d="M352.087 26.619C353.097 26.6046 354.032 26.694 355.028 26.8573C354.714 27.4018 354.414 27.9534 354.03 28.453C354.296 30.0502 355.201 31.1322 356.5 32.0314C357.801 32.9318 359.948 33.4036 361.491 33.7427L360.817 38.6637L354.047 37.6715L351.588 37.5559L351.082 37.3766L353.961 30.9224L353.373 30.5279C351.925 29.7244 351.5 28.7772 351.033 27.2178L352.087 26.619Z" fill="#D65327"/>
<path d="M337.402 137.96L348.348 140.592L345.028 147.308C341.267 146.886 337.597 147.79 333.821 147.069L337.402 137.96Z" fill="#B23612"/>
<path d="M380.336 138.407L382.485 147.254C378.638 147.84 374.659 147.422 370.776 147.374L369.044 140.128C371.641 139.982 374.271 139.535 376.858 139.239C378.036 139.105 379.387 139.223 380.336 138.407Z" fill="#E56830"/>
<path d="M382.485 147.254C387.316 148.62 389.458 149.629 392.666 153.481L369.744 153.487C369.788 152.328 369.56 148.993 370.011 148.093C370.1 147.914 370.612 147.528 370.776 147.374C374.659 147.422 378.638 147.84 382.485 147.254Z" fill="#F8BC57"/>
<path d="M333.821 147.069C337.597 147.79 341.266 146.886 345.028 147.308C349.01 148.472 352.229 149.554 354.349 153.415L330.545 153.487C330.985 150.713 331.713 148.957 333.821 147.069Z" fill="#F28B30"/>
<path d="M367.822 62.1242L375.928 71.8888C376.345 72.388 377.546 74.179 378.052 74.4227C379.526 75.1333 381.096 74.3099 382.616 75.7305L382.436 76.1829L381.01 76.7981C381.558 78.1629 382.842 79.6012 383.704 80.8156C382.491 81.4273 381.196 82.2179 379.905 82.6195C379.043 82.8632 378.292 83.0952 377.39 82.9944C375.33 82.7155 373.121 77.3606 371.708 75.7106C370.253 74.0114 368.535 72.549 367.051 70.8697L367.822 62.1242Z" fill="#B23612"/>
<path d="M358.659 24.137C359.479 23.5284 359.476 23.0581 359.947 22.2398C360.314 21.6031 360.826 21.3765 361.521 21.191C362.584 20.907 364.854 20.2473 365.812 20.7879C367.126 24.1808 368.219 25.8362 371.369 27.6627L368.823 28.9104L368.66 29.6943C368.209 31.1111 367.848 31.9689 366.45 32.6814C364.844 33.4997 363.133 33.249 361.491 33.7427C359.948 33.4036 357.801 32.9318 356.5 32.0314C355.201 31.1322 354.295 30.0502 354.03 28.453C354.414 27.9534 354.714 27.4018 355.028 26.8573C355.187 26.0632 355.506 25.6593 356.011 25.0542L358.659 24.137Z" fill="#E56830"/>
<path d="M358.659 24.137C359.479 23.5284 359.476 23.0581 359.947 22.2398C360.314 21.6031 360.826 21.3765 361.521 21.191C362.584 20.907 364.854 20.2473 365.812 20.7879C367.126 24.1808 368.219 25.8362 371.369 27.6627L368.823 28.9104L368.66 29.6943C367.688 29.9814 366.775 30.2037 365.766 30.306C365.138 30.0826 364.784 29.842 364.29 29.4033L364.496 28.6053C364.434 28.2823 364.33 27.9455 364.113 27.6905C363.089 26.4893 360.128 24.3612 358.659 24.137Z" fill="#E56830"/>
<path d="M351.033 27.2178C350.117 27.1799 348.997 27.1108 348.18 26.6538C347.325 26.1765 347.213 25.6706 346.967 24.7976C347.361 23.7648 347.94 23.271 348.786 22.5894C348.619 21.6797 347.601 21.0805 347.295 20.0649C347.486 19.1578 347.479 18.8633 348.166 18.2071C349.61 16.8278 351.447 17.27 353.282 17.32C353.398 16.6571 353.643 16.0927 353.988 15.5169C354.569 14.5497 355.43 13.9829 356.518 13.7283C357.511 13.4958 358.839 13.6872 359.687 14.274C360.933 15.1353 361.015 16.8126 361.233 18.1844C362.816 17.9977 364.843 17.4258 366.221 18.4282C366.764 18.8231 366.699 18.9391 366.804 19.6074L365.812 20.7879C364.854 20.2473 362.584 20.907 361.521 21.191C360.826 21.3765 360.314 21.6031 359.947 22.2398C359.476 23.0582 359.479 23.5285 358.659 24.137L356.01 25.0542C355.506 25.6593 355.187 26.0632 355.028 26.8573C354.032 26.694 353.097 26.6046 352.087 26.619L351.033 27.2178Z" fill="#102874"/>
<path d="M352.087 26.619L352.292 24.9452C352.79 24.2655 353.068 23.9523 353.895 23.7253C354.946 23.978 355.22 24.3058 356.011 25.0542C355.506 25.6593 355.187 26.0632 355.028 26.8573C354.032 26.694 353.097 26.6046 352.087 26.619Z" fill="#E56830"/>
<path d="M345.011 88.2096L359.088 110.164C359.91 111.285 359.492 115.935 359.488 117.486C359.486 118.057 359.349 118.875 359.621 119.357C357.877 125.123 355.737 130.756 353.409 136.307C352.9 137.522 352.008 140.268 350.976 140.978L348.348 140.592L337.402 137.96L332.881 136.771C336.172 130.244 338.764 123.395 341.679 116.696C342.793 114.137 344.948 111.017 345.326 108.27C345.606 106.232 345.372 103.887 345.335 101.827L345.011 88.2096Z" fill="#2F79A6"/>
<path d="M351.082 37.3766L351.588 37.5559L354.047 37.6715L360.817 38.6637C363.161 39.9523 364.847 41.2644 365.628 43.9554C366.188 45.8847 366.146 48.1709 366.339 50.1834C366.717 54.1419 367.115 58.2129 367.822 62.1242L367.051 70.8697C366.028 70.8795 364.943 70.8135 363.956 71.1119L363.632 70.7474C359.169 70.1463 354.009 70.7185 349.475 70.7717L346.597 67.2944L340.783 60.5945L348.091 54.1216C347.051 53.2384 345.539 52.6177 344.333 51.9755C341.986 50.7256 339.63 49.3119 337.101 48.476C336.863 48.126 336.717 47.8131 336.588 47.41C339.003 44.3249 341.689 39.8246 345.484 38.3661C347.244 37.6895 349.227 37.6075 351.082 37.3766Z" fill="#3467AA"/>
<path d="M351.588 37.5559L354.047 37.6715C356.487 39.4437 357.651 40.8488 358.614 43.7366C357.063 47.4592 354.724 50.3084 352.262 53.4849C351.393 54.6063 350.417 55.5036 349.739 56.7797C348.024 60.0113 347.514 63.7917 346.597 67.2944L340.783 60.5945L348.091 54.1216L349.847 54.9106L350.587 54.5317C351.705 50.9658 356.174 48.3967 356.776 44.8304L356.836 44.5022C356.967 43.9855 357.008 43.5425 356.925 43.0101C356.437 39.8598 353.88 39.2762 351.739 37.6711L351.588 37.5559Z" fill="#22478E"/>
<path d="M351.082 37.3766L351.588 37.5559L351.739 37.6711C353.88 39.2762 356.438 39.8598 356.925 43.0101C357.008 43.5425 356.967 43.9855 356.837 44.5023L356.776 44.8304C356.174 48.3967 351.705 50.9658 350.587 54.5317L349.847 54.9106L348.091 54.1216C347.051 53.2384 345.539 52.6177 344.333 51.9755C341.986 50.7256 339.63 49.3119 337.101 48.476C336.863 48.126 336.717 47.8131 336.588 47.41C339.003 44.3249 341.689 39.8246 345.484 38.3661C347.244 37.6895 349.227 37.6075 351.082 37.3766Z" fill="#2F79A6"/>
<path d="M337.101 48.476C339.63 49.3119 341.986 50.7256 344.333 51.9755C345.539 52.6177 347.051 53.2384 348.091 54.1216L340.783 60.5945L346.597 67.2944L349.475 70.7716C354.009 70.7185 359.169 70.1463 363.632 70.7474L363.956 71.1119L383.701 136.872C382.607 137.035 381.385 137.109 380.328 137.42L380.336 138.407C379.387 139.223 378.036 139.105 376.858 139.239C374.271 139.535 371.641 139.982 369.044 140.128L368.526 138.855L365.954 138.77C365.193 138.015 364.955 136.498 364.69 135.48L362.636 128.067L359.621 119.357C359.349 118.875 359.487 118.057 359.488 117.486C359.492 115.935 359.91 111.285 359.088 110.164L345.011 88.2096C344.404 85.1448 341.412 81.8468 339.613 79.3516C339.144 78.7016 338.208 77.6778 337.951 76.9532C337.873 76.7356 338.074 75.7844 338.103 75.5173L338.782 69.7099L327.972 59.2902L337.101 48.476Z" fill="#65B9CF"/>
<path d="M368.526 138.855L380.328 137.42L380.336 138.407C379.387 139.223 378.036 139.105 376.858 139.239C374.271 139.535 371.641 139.982 369.044 140.128L368.526 138.855Z" fill="#B23612"/>
<path d="M337.101 48.476C339.63 49.3119 341.986 50.7256 344.333 51.9755C345.539 52.6177 347.051 53.2384 348.091 54.1216L340.783 60.5945L346.597 67.2944L349.475 70.7716L352.958 75.3126C353.334 75.8012 353.841 76.6907 354.306 77.0633C354.544 77.2543 355.483 77.4477 355.831 77.5657C357.043 77.977 357.683 78.3059 358.601 79.2383L358.352 79.7574L356.929 80.0785C357.36 81.5324 358.437 82.6655 359.37 83.8241C357.615 84.619 356.075 85.2854 354.124 85.3846C353.206 85.4315 352.53 85.4546 351.834 84.7354C350.044 82.8874 349.31 80.0629 347.756 78.0274C345.487 75.0544 341.603 72.2595 338.782 69.7099L327.972 59.2902L337.101 48.476Z" fill="#D65327"/>
<path d="M224.882 30.0231L225.882 30.2746C226.34 31.7473 227.531 32.9487 228.874 33.6798C229.839 34.2051 231.05 34.4683 232.105 34.7647L230.685 38.3955C229.868 38.5658 228.689 38.3304 227.848 38.2819L221.743 38.0041L224.357 31.3365L224.882 30.0231Z" fill="#D65327"/>
<path d="M179.686 118.959L189.003 134.602C189.428 135.296 189.558 135.904 189.689 136.7C188.993 137.169 188.711 137.519 187.86 137.48L177.217 120.174C177.401 119.733 179.16 119.178 179.686 118.959Z" fill="#65B9CF"/>
<path d="M212.715 153.659L229.126 153.674C231.84 153.677 234.774 153.911 237.459 153.625C238.029 154.238 237.977 154.411 238.024 155.215C237.822 155.365 237.585 155.52 237.331 155.554C235.306 155.82 233.086 155.716 231.04 155.763L218.363 155.813C217.051 155.781 214.095 155.974 213.029 155.263L212.715 153.659Z" fill="#65B9CF"/>
<path d="M217.229 137.88L228.999 139.957L226.983 147.381C222.785 147.09 218.894 147.701 214.625 147.073L217.229 137.88Z" fill="#B23612"/>
<path d="M188.467 117.677C189.251 117.117 190.693 116.799 191.617 116.471L199.157 113.809L204.644 121.911L191.841 126.506C191.254 123.7 189.447 120.447 188.467 117.677Z" fill="#E56830"/>
<path d="M214.625 147.073C218.894 147.701 222.785 147.09 226.983 147.381C231.145 148.637 235.012 149.691 237.459 153.625C234.774 153.911 231.84 153.677 229.126 153.674L212.715 153.659C213.004 151.193 213.333 149.232 214.625 147.073Z" fill="#F28B30"/>
<path d="M239.167 60.8901L247.66 71.9637C248.462 73.0045 249.64 75.0199 250.692 75.6717C251.901 76.4202 253.399 75.7376 254.595 77.1254C254.052 77.5937 253.622 77.6564 252.944 77.7453C253.159 79.5136 255.656 81.195 256.196 83.1562C255.226 84.267 252.313 85.364 250.828 85.4534C250.065 85.4991 249.672 85.2241 249.156 84.7085C247.827 83.3806 246.731 81.3284 246.313 79.4869C246.181 78.9043 246.177 77.8703 245.948 77.3668C245.776 76.9884 244.445 76.0575 244.037 75.6915L239.378 71.0813L239.167 60.8901Z" fill="#B23612"/>
<path d="M237.748 21.1007C238.564 23.2091 239.368 25.002 241.181 26.4363C241.931 26.8342 242.382 26.9434 242.802 27.6983C242.096 28.6527 240.892 28.8039 240.2 29.5686C239.715 30.1043 239.427 31.2556 239.016 31.9078C236.774 33.852 234.994 34.383 232.105 34.7647C231.05 34.4683 229.839 34.205 228.874 33.6798C227.531 32.9487 226.34 31.7473 225.882 30.2746C226.828 29.9762 227.306 29.592 227.977 28.8649C228.322 27.3902 228.253 27.1925 227.715 25.7651L228.911 23.1436C232.053 22.163 234.418 21.313 237.748 21.1007Z" fill="#E56830"/>
<path d="M241.181 26.4363C241.931 26.8342 242.382 26.9434 242.802 27.6984C242.096 28.6527 240.892 28.8039 240.2 29.5686C239.715 30.1043 239.427 31.2556 239.016 31.9078C236.888 31.854 236.049 31.9976 234.435 30.4658L234.506 29.905C236.911 29.0356 239.003 27.7525 241.181 26.4363Z" fill="#E56830"/>
<path d="M179.686 118.959C182.293 118.11 185.45 116.911 188.136 116.553C189.405 116.384 189.491 116.509 190.473 117.27C191.453 120.04 193.26 123.293 193.847 126.1L195.62 130.567L189.003 134.602L179.686 118.959Z" fill="#F8BC57"/>
<path d="M224.357 31.3365L223.668 30.9244C222.316 29.9317 222.338 29.0303 222.066 27.4331C221.334 27.4367 220.306 27.5952 219.618 27.3931C218.84 27.1638 218.446 26.465 218.06 25.8039C218.186 24.3639 218.783 23.8941 219.662 22.8043C219.152 22.207 218.32 21.224 218.304 20.4363C218.287 19.5524 218.739 18.7396 219.362 18.1355C220.726 16.8136 222.872 17.1828 224.619 17.2131C224.738 17.0421 224.85 16.8856 224.933 16.6923C225.152 16.1783 225.371 15.7291 225.764 15.3211C226.804 14.2402 228.328 13.5875 229.836 13.6344C230.773 13.664 231.76 14.1811 232.395 14.8621C233.304 15.8374 233.235 16.9515 233.194 18.1957C234.255 18.782 236.357 18.3987 237.645 18.52C238.289 19.1039 238.292 19.3004 238.462 20.1205L237.748 21.1007C234.418 21.313 232.053 22.163 228.911 23.1436L227.715 25.7651C228.253 27.1925 228.322 27.3902 227.977 28.865C227.306 29.592 226.828 29.9762 225.882 30.2746L224.882 30.0231L224.357 31.3365Z" fill="#102874"/>
<path d="M224.882 30.023C224.093 29.1213 224.055 28.3943 224.037 27.2248C224.805 26.3708 225.484 25.8035 226.502 25.2717L227.715 25.7651C228.253 27.1925 228.322 27.3902 227.977 28.8649C227.306 29.592 226.828 29.9761 225.882 30.2746L224.882 30.023Z" fill="#E56830"/>
<path d="M204.976 48.3251C206.892 49.6228 215.174 54.5277 215.849 56.1218C214.184 57.9184 212.223 59.4392 210.351 61.0122C210.007 61.3013 208.786 62.1141 208.617 62.4663C208.561 62.5831 208.633 63.1634 208.639 63.3106L209.901 73.7372L209.91 74.0506C210.05 75.3454 210.041 77.6434 210.762 78.6928C211.875 79.1351 212.554 79.4643 213.055 80.5957L213.454 81.6596C213.566 82.9439 214.187 84.1578 214.176 85.4101C213.167 86.0773 212.411 86.1869 211.374 86.643C210.391 87.0749 209.339 86.3466 208.273 87.0915L208.14 87.1906L207.512 86.9536C206.554 85.635 205.798 84.3106 205.232 82.774C204.611 81.0858 205.166 81.0664 205.819 79.6398C203.162 73.6923 198.968 68.7101 196.167 62.9184C195.587 61.7182 195.141 60.4242 195.612 59.1161L195.671 58.958C196.286 57.2754 197.89 55.9608 199.098 54.6895L204.976 48.3251Z" fill="#E56830"/>
<path d="M215.254 121.578C216.376 121.688 219.494 119.954 220.732 119.479C226.269 117.354 232.001 114.925 237.697 113.313L233.581 130.712C233.006 133.193 232.73 138.492 231.12 140.308L228.999 139.957L217.229 137.88C215.456 137.279 213.292 137.111 211.436 136.781L215.254 121.578Z" fill="#2F79A6"/>
<path d="M221.743 38.0041L227.848 38.2819C228.689 38.3304 229.868 38.5657 230.685 38.3955C231.027 38.5168 232.088 38.7594 232.309 38.9709C232.823 39.4622 233.429 41.1258 233.751 41.8027C236.718 48.0372 238.189 54.0777 239.167 60.8901L239.378 71.0814L240.018 88.6532C238.975 87.1489 238.423 85.2913 237.734 83.6046L233.79 73.9496L209.91 74.0506L209.901 73.7372L208.639 63.3106C208.633 63.1634 208.561 62.5832 208.617 62.4663C208.786 62.1141 210.007 61.3013 210.351 61.0122C212.223 59.4392 214.184 57.9184 215.849 56.1218C215.174 54.5278 206.892 49.6228 204.976 48.3252L205.852 47.1986C209.139 43.0433 213.147 38.7813 218.654 38.1464C219.362 38.1456 220.248 38.0405 220.934 38.1662L221.743 38.0041Z" fill="#3467AA"/>
<path d="M222.183 53.4513L219.565 73.565C218.962 73.8994 217.802 73.7445 217.094 73.7461L209.901 73.7372L208.639 63.3106C208.633 63.1634 208.561 62.5832 208.617 62.4663C208.786 62.1141 210.007 61.3013 210.351 61.0122C212.223 59.4392 214.184 57.9184 215.849 56.1218L216.013 56.7663C216.608 57.3405 217.408 57.455 218.184 57.6442L222.183 53.4513Z" fill="#22478E"/>
<path d="M218.654 38.1464C219.362 38.1456 220.248 38.0405 220.934 38.1662C223.485 39.9309 226.77 40.5091 227.352 44.1177C227.677 46.1327 227.112 47.8638 225.894 49.476C224.931 50.7497 223.483 52.5767 222.183 53.4513L218.184 57.6442C217.408 57.455 216.608 57.3405 216.012 56.7663L215.849 56.1218C215.174 54.5277 206.892 49.6228 204.976 48.3251L205.852 47.1986C209.139 43.0433 213.147 38.7813 218.654 38.1464Z" fill="#2F79A6"/>
<path d="M218.655 38.1464C219.362 38.1456 220.248 38.0405 220.934 38.1662C223.485 39.9309 226.77 40.5091 227.352 44.1177C227.677 46.1327 227.112 47.8638 225.894 49.476C224.931 50.7497 223.483 52.5767 222.183 53.4513L218.184 57.6442C217.408 57.455 216.608 57.3405 216.013 56.7663L215.849 56.1218L217.399 56.6846C218.342 56.2123 219.171 55.1387 219.906 54.3822C221.7 52.5338 223.786 50.6066 225.196 48.4388C225.958 47.2661 226.348 45.8945 226.043 44.5107C225.022 39.871 221.868 40.1953 218.655 38.1464Z" fill="#102874"/>
<path d="M209.91 74.0506L233.79 73.9496L237.734 83.6046C238.423 85.2913 238.975 87.1489 240.018 88.6532C240.728 92.2371 242.114 95.3394 243.609 98.6447C244.46 100.526 245.741 102.765 245.973 104.825C246.133 106.252 245.776 107.522 244.994 108.713C243.265 111.346 240.283 111.901 237.697 113.313C232.001 114.925 226.269 117.354 220.732 119.479C219.494 119.954 216.376 121.688 215.254 121.578L206.809 124.684L204.644 121.911L199.157 113.809C198.712 112.93 198.046 112.085 197.499 111.261L218.883 105.233L217.957 89.5027C217.212 86.6317 215.352 83.9075 213.453 81.6596L213.055 80.5957C212.554 79.4643 211.874 79.1352 210.762 78.6928C210.041 77.6434 210.05 75.3454 209.91 74.0506Z" fill="#65B9CF"/>
<path d="M217.957 89.5027C219.653 91.0009 220.696 93.2177 221.837 95.1473L226.549 102.963C224.254 103.559 220.944 104.03 218.883 105.233L217.957 89.5027Z" fill="#2F79A6"/>
<path d="M52.5615 140.936C52.5136 141.092 52.4807 141.22 52.3775 141.35C51.8228 142.054 51.3099 142.521 50.4465 142.65L34.4811 130.037L36.545 128.465L52.5615 140.936Z" fill="#65B9CF"/>
<path d="M69.9904 153.499L94.4281 153.396C94.8727 154.277 94.7989 154.493 94.6512 155.471C92.8623 156.105 89.7322 155.668 87.7302 155.666L77.3877 155.673C75.0069 155.71 72.4663 156.046 70.1344 155.476L69.9904 153.499Z" fill="#65B9CF"/>
<path d="M79.1095 29.5502C81.1151 31.9937 81.8792 33.3911 85.1577 34.2304L84.953 36.0333L84.6926 38.6125L75.6226 37.9332L75.0323 37.787L77.1098 30.0482L77.5966 30.0547L79.1095 29.5502Z" fill="#D65327"/>
<path d="M79.1092 29.5502C81.1148 31.9937 81.8789 33.3911 85.1574 34.2304L84.9528 36.0333C84.9203 35.5058 84.9106 35.1411 84.6189 34.6912L84.4792 34.7433C83.3813 35.1104 81.8757 35.0434 80.8552 34.4941C79.3503 33.6839 78.8812 31.9804 78.4346 30.4355L77.5963 30.0547L79.1092 29.5502Z" fill="#B23612"/>
<path d="M74.2904 137.337L86.5863 138.653L84.1344 147.086C80.3197 147.789 75.6319 147.436 71.7606 147.033L74.2904 137.337Z" fill="#D65327"/>
<path d="M44.7655 124.183L54.0186 117.766L62.2823 125.346L53.1883 131.259C50.8708 128.669 47.4701 126.416 44.7655 124.183Z" fill="#D65327"/>
<path d="M71.7604 147.033C75.6317 147.436 80.3196 147.789 84.1342 147.086C88.2543 147.695 91.2989 149.207 93.8178 152.596C94.016 152.862 94.1922 153.164 94.4281 153.396L69.9904 153.499L71.7604 147.033Z" fill="#F8BC57"/>
<path d="M44.7653 124.183C47.4698 126.416 50.8706 128.669 53.1881 131.259C54.0436 132.863 55.1338 135.016 54.6107 136.869C54.2227 138.243 52.6826 139.537 52.5614 140.936L36.5449 128.465C39.2162 126.732 41.7836 125.32 44.7653 124.183Z" fill="#F8BC57"/>
<path d="M90.8427 21.0462C90.8186 23.0143 91.7785 23.9222 93.0859 25.2724L96.1819 28.2114C95.1742 28.5094 93.7517 28.7413 92.9844 29.4848C92.8247 30.8172 92.6762 31.8814 91.5879 32.7692C89.8367 34.1977 87.3077 34.2272 85.1576 34.2304C81.8791 33.3911 81.115 31.9937 79.1094 29.5502C77.9978 28.5664 77.4464 27.9436 77.2297 26.4884C77.4408 26.2259 77.6567 25.9658 77.9103 25.7433C78.6812 25.068 79.7587 25.194 80.7001 25.2792C81.6154 24.7029 81.4979 24.0337 82.0878 23.2061C82.9216 22.0361 89.2199 21.3051 90.8427 21.0462Z" fill="#E56830"/>
<path d="M93.1075 60.0552L100.529 68.9571C101.985 70.7403 103.39 72.7584 105.021 74.3768C106.316 75.6623 109.145 75.6308 109.951 77.2633C109.471 77.7734 109.017 77.9119 108.373 78.1082C108.863 79.4657 109.821 80.7108 110.601 81.9176L104.435 83.9596C103.137 82.6571 101.302 81.145 100.781 79.3401C100.586 78.6636 100.549 77.5973 100.234 76.9923C100.045 76.6308 98.9126 75.901 98.5602 75.6102L92.6248 70.7661L93.1075 60.0552Z" fill="#B23612"/>
<path d="M77.1096 30.0482C75.7982 29.4856 75.2633 29.0531 74.4808 27.8697C74.3712 27.7049 71.9892 26.9666 71.4514 26.6225C71.1569 26.2033 70.8704 25.8236 70.8166 25.2986C70.7054 24.2182 71.622 23.1714 72.2809 22.3886C71.8535 21.6164 71.4811 20.7166 71.6922 19.8204C72.2007 17.6592 73.9784 17.4476 75.8721 17.2291C76.1036 17.2024 77.2055 17.1406 77.3592 17.0276C78.2212 16.3931 78.356 14.975 79.5788 14.2509C80.6434 13.6204 82.2112 13.4718 83.3946 13.8046C84.3934 14.0857 85.6631 15.0445 85.9822 16.0813C86.2679 17.0098 85.7915 17.8406 86.3433 18.7856C87.7535 18.5704 89.1608 18.2578 90.5753 18.5776C91.1195 19.194 91.1909 19.4064 91.3506 20.181L90.8426 21.0462C89.2198 21.305 82.9215 22.0361 82.0876 23.2061C81.4977 24.0336 81.6153 24.7029 80.7 25.2792C79.7585 25.194 78.6811 25.068 77.9102 25.7433C77.6566 25.9658 77.4407 26.2259 77.2296 26.4884C77.4463 27.9436 77.9977 28.5664 79.1093 29.5502L77.5964 30.0547L77.1096 30.0482Z" fill="#102874"/>
<path d="M91.4496 83.773L95.08 98.8955C95.9645 102.868 96.8886 107.25 96.3361 111.331C95.7931 115.34 94.2775 119.367 93.2032 123.272C91.8155 128.316 90.6799 133.527 89.0081 138.473C88.1341 138.749 87.4936 138.761 86.5863 138.653L74.2904 137.337L68.5225 136.606L72.227 121.867C76.6231 117.867 82.1336 115.285 86.2978 111.108C89.2934 108.103 89.1967 104.41 89.5198 100.443L90.4443 90.3542C90.6626 88.0307 90.6554 86.0045 91.4496 83.773Z" fill="#2F79A6"/>
<path d="M75.0323 37.787L75.6226 37.9332L84.6926 38.6125C88.738 43.2708 92.1265 48.1069 92.8143 54.4486C92.9965 56.1295 92.6678 58.5003 93.1076 60.0552L92.6249 70.7661L92.5093 74.5064L92.1433 73.7278L79.8257 73.771C79.6821 72.6009 79.1066 71.2092 78.78 70.0597L76.4424 61.6009C76.4633 60.0791 77.5488 58.4886 78.2466 57.1582C73.6804 55.6728 68.7574 54.9179 63.9946 54.3702L62.2224 54.2761L62.0318 51.1041C61.8673 47.43 61.9835 44.2906 64.6012 41.453C66.9556 38.9005 70.3765 38.1157 73.7073 38.0115L75.0323 37.787Z" fill="#2F79A6"/>
<path d="M75.0323 37.787L75.6226 37.9332C78.7708 39.6715 81.5914 41.0289 82.703 44.7159C83.8326 48.4643 81.8346 52.2701 80.4441 55.6275C79.7403 57.3266 79.1391 59.1768 78.3053 60.8036C78.1524 61.1025 77.9437 61.3703 77.7218 61.6199L76.4425 61.6009C76.4633 60.0791 77.5488 58.4886 78.2467 57.1582L78.3293 57.0528C80.512 54.0003 82.3691 48.9631 81.6111 45.1986C81.1139 42.7309 79.0585 40.4776 76.8345 39.4186C75.8373 38.9441 74.79 38.7522 73.8602 38.1186L73.7073 38.0115L75.0323 37.787Z" fill="#102874"/>
<path d="M62.2224 54.2762L62.0318 51.1041C61.8673 47.43 61.9835 44.2906 64.6012 41.453C66.9556 38.9005 70.3765 38.1157 73.7073 38.0115L73.8601 38.1186C74.7899 38.7522 75.8373 38.9441 76.8345 39.4186C79.0585 40.4776 81.1139 42.7309 81.6111 45.1986C82.3691 48.9631 80.5119 54.0003 78.3293 57.0528L78.2466 57.1582C73.6804 55.6728 68.7574 54.9179 63.9946 54.3702L62.2224 54.2762Z" fill="#2F79A6"/>
<path d="M62.2225 54.2761L63.9947 54.3702C68.7575 54.9179 73.6805 55.6727 78.2467 57.1582C77.5489 58.4886 76.4634 60.0791 76.4425 61.6009L78.7801 70.0597C79.1067 71.2092 79.6822 72.6009 79.8258 73.771L92.1434 73.7278L92.5094 74.5064C92.2646 75.8324 91.9331 77.0622 91.4584 78.3263C91.2694 78.8296 90.7196 79.8219 90.6883 80.3219C90.6378 81.1301 91.263 82.9265 91.4496 83.773C90.6554 86.0045 90.6627 88.0307 90.4444 90.3542L89.5198 100.443C89.1967 104.41 89.2935 108.103 86.2978 111.108C82.1336 115.285 76.6231 117.867 72.227 121.867C69.4681 123.397 66.9125 125.47 64.3615 127.332L62.2823 125.346L54.0187 117.766C53.5687 117.261 53.289 117.057 53.1824 116.369C55.017 114.53 57.457 113.128 59.5424 111.562L73.3614 101.192L65.9265 85.3054C64.8589 83.0626 63.2225 80.6717 62.4976 78.3296C62.0925 77.0206 62.2223 75.2997 62.2106 73.9313L62.2225 54.2761Z" fill="#65B9CF"/>
<path d="M62.2225 54.2761L63.9947 54.3702C68.7575 54.9179 73.6804 55.6727 78.2467 57.1582C77.5489 58.4886 76.4634 60.0791 76.4425 61.6009L78.78 70.0597C79.1067 71.2092 79.6821 72.6009 79.8258 73.771L81.6019 80.0981L84.9896 80.6442C85.9527 82.107 86.3259 84.0683 86.557 85.7783C86.2942 86.0004 85.5177 86.8159 85.246 86.8857C84.7994 87.0012 84.4776 86.6818 83.9675 86.9427C83.7308 87.0634 83.0626 87.702 82.8949 87.7234C82.6926 87.7492 82.1621 87.2819 81.9542 87.3025C81.6521 87.3324 81.1472 88.036 80.8571 88.0695C80.374 88.1248 80.0305 87.3559 78.9759 87.5521C77.8129 86.6963 77.164 84.1604 76.829 82.7823C77.0589 82.332 77.2042 81.9725 77.2632 81.4717C77.4622 79.7859 73.6174 75.3316 72.538 73.9434L62.2106 73.9313L62.2225 54.2761Z" fill="#E56830"/>
<path d="M62.2225 54.2761L63.9947 54.3702C63.6539 56.0807 62.974 58.1982 63.0331 59.9236L72.538 73.9434L62.2106 73.9313L62.2225 54.2761Z" fill="#3467AA"/>
<defs>
<linearGradient id="paint0_linear_5_475" x1="641.43" y1="46.7272" x2="676.201" y2="67.254" gradientUnits="userSpaceOnUse">
<stop stop-color="#2F7AA6"/>
<stop offset="1" stop-color="#375EAD"/>
</linearGradient>
</defs>
</svg>
