<?xml version="1.0" encoding="utf-8"?>
<!-- Generator: Adobe Illustrator 23.0.5, SVG Export Plug-In . SVG Version: 6.00 Build 0)  -->
<svg version="1.1" id="Capa_1" xmlns="http://www.w3.org/2000/svg" xmlns:xlink="http://www.w3.org/1999/xlink" x="0px" y="0px"
	 viewBox="0 0 1100 700" style="enable-background:new 0 0 1100 700;" xml:space="preserve">
<style type="text/css">
	.st0{fill:#1C92D3;}
	.st1{fill:#13AE21;}
	.st2{fill:#139A21;}
	.st3{fill:#1F8B00;}
	.st4{fill:#139A21;stroke:#00B009;stroke-miterlimit:10;}
	.st5{fill:#E7FAFF;}
</style>
<g>
	<ellipse class="st0" cx="551" cy="348" rx="328" ry="321"/>
</g>
<path class="st1" d="M246.73,227.76l-10,61L253,317l16,24l13,31l5,12c0,0,2,5.62,16,11c13,5-5-21-5-21l-2-10l18,7l17,29l21,21l64,12
	l22,19l-22,24l-4,39l21,22l14,26l4,47l-3.5,35.5l5.5-3.5l3,3c0,0,14.42-19.63,17-31c5-22,11-40,11-40l32-19c0,0,36-46,36-50
	s-26-19-26-19l-15-33l-26,2l-17-8l-23-3l-27-22c0,0-6-20-16-22s-13-37-13-37l8-12l28-4l8,11l9,5c0,0,11,1-1-24s6-46,6-46l-6-27l8-38
	l8.66-10.66c6.1-6.1,4.5-16.38-3.17-20.33L435,179h-25l-22.77,23.53c-4.59,4.75-11.02,7.26-17.62,6.88L345,208l-18.54-17.05
	c-3.97-3.65-9.65-4.78-14.71-2.92L290,196l-37,18"/>
<path class="st2" d="M234,263"/>
<path class="st3" d="M954,459"/>
<path class="st3" d="M349,197"/>
<polygon class="st1" points="628.75,344.98 656.87,323.5 682.26,334.24 709.47,336.93 730.33,323.5 750.28,323.5 780.21,361.1 
	792,370.05 801.98,359.31 824.65,346.77 831,361.1 821.02,389.74 810.14,403.17 803.79,416.6 801.98,444.35 785.65,457.77 
	792.91,481.94 784.75,502.53 782.03,524.02 771.14,541.02 771.52,571.93 763.89,585.78 752.1,590.26 743.03,601 729.42,594.73 
	725.8,582.2 714.01,566.09 700.4,549.08 704.03,526.7 701.31,514.17 679.54,490 675.01,475.68 665.94,458.67 655.96,462.25 
	632.38,462.25 618.78,462.25 599.73,427.34 582.5,413.02 587.94,384.37 596.1,358.41 612.43,344.98 "/>
<polygon class="st4" points="806.5,493.5 802.5,506.5 802.5,518.5 799.5,535.5 813.5,524.5 813.5,511.5 818.5,493.5 812.5,481.5 "/>
<path class="st1" d="M566.58,208.08l2.53-2.38l4.55-0.55c0,0,4.19,0.12,5.17-0.12s4.84-3.54,4.84-3.54l1-4.33l-3.49-1.46
	c0,0-0.98,0.24-1.96,0.49c-0.98,0.24-2.94,0.73-3.57,0.3c-0.63-0.43-3.27-2.68-3.27-2.68l3.92-0.97l-0.71,1.34l2.86,1.04
	c0,0,3.29-1.4,3.65-2.07c0.35-0.67,0.79-3.11,0.79-3.11l-2.78-2.8l-1.74-0.73l-4.68,0l-0.68-2.74c0,0-0.03-6.4,0.46-6.52
	c0.49-0.12-5.09-1.65-5.09-1.65l-5.01-3.41l-3.6-6.1l0.54-8.29l6.37-1.58c0,0,0.79-3.11,1-4.33c0.22-1.22-1.85-5.36-2.48-5.79
	c-0.63-0.43-4.74-2.32-4.74-2.32l-4.33-0.67c0,0-2.8,1.28-3.92,0.97c-1.12-0.3-10.21,0.79-10.21,0.79l-0.84,0.79
	c0,0-1.36,5-1.85,5.12c-0.49,0.12-1.33,0.91-1.06,2.01s4.66,4.09,4.66,4.09s-0.57,1.89-0.38,4.75c0.19,2.87-1.71,5.67-1.58,6.22
	c0.14,0.55-1.33,0.91,0.96,3.84c2.29,2.93,2.15,2.38,3.27,2.68s1.12,0.3,2.23,0.61c1.12,0.3,0.98-0.24,1.66,2.5
	c0.68,2.74-0.02,4.08,0.11,4.63c0.14,0.55,0.14,0.55-1.55,2.13c-1.69,1.58-1.69,1.58-2.18,1.71c-0.49,0.12-0.9-1.52-2.04,2.26
	c-1.14,3.78-0.87,4.88-0.6,5.97c0.27,1.1,1.25,0.85,1.66,2.5c0.41,1.65,1.31,3.17,1.31,3.17s-1.06,2.01-1.06,2.01l2.78,2.8
	c0,0,2.45-0.61,3.57-0.3c1.12,0.3,1.61,0.18,1.39,1.4c-0.22,1.22-0.22,1.22-2.18,1.71c-1.96,0.49-1.47,0.37-3.43,0.85
	c-1.96,0.49-5.04,0.67-5.53,0.79c-0.49,0.12-3.27-2.68-0.71,1.34c2.56,4.02,5.28,4.51,5.28,4.51s-0.49,0.12,1.25,0.85
	c1.74,0.73,1.61,0.18,2.72,0.49c1.12,0.3,2.1,0.06,4.06-0.43c1.96-0.49,3.43-0.85,5.39-1.34c1.96-0.49,2.67-1.83,3.92-0.97
	s4.33,0.67,4.33,0.67l3.1-4.27L566.58,208.08z"/>
<path class="st1" d="M515.13,196.23c-0.4,0.18-1.19,7.86-1.19,7.86s-3.87,7.26-2.85,7.4c1.03,0.14,10.42,7.99,10.42,7.99L521,228
	c0,0,4.27,0.7,4.67,0.52c0.4-0.18,4.43-8.13,4.83-8.32c0.4-0.18,1.95-5.16,1.89-6.35s2.58,2.46-0.3-1.69
	c-2.88-4.15-5.22-6.12-5.22-6.12l0.53-5.12l2.38-1.1l-1.42-7.26l-8.04-1.78L515.13,196.23z"/>
<path class="st5" d="M500,665c0,0,75.4,16.39,155-13s50-28,50-28l-46,6l-24-6l-43,19l-26-11l-18,2l-22,1l-20-11l-5,8l-8,15
	c0,0-5.12,3.88-3,6C492,655,500,665,500,665z"/>
<path class="st5" d="M423.65,52.09c0,0,100.5-47.08,212.45-14.18C692.58,54.51,640,55,647,61l-21,11l-24,3l-21,12l-16,9
	c0,0-16,1-19-1s-8-9-8-9l-20-3l-2-12h-31l-14-15l-20-3L423.65,52.09z"/>
<path class="st2" d="M515.72,195.88c-0.4,0.18-1.19,7.86-1.19,7.86s-3.87,7.26-2.85,7.4c1.03,0.14,10.42,7.99,10.42,7.99L521,228
	c0,0,4.6,1.18,5,1s4.7-8.97,5.09-9.15c0.4-0.18,1.95-5.16,1.89-6.35s2.58,2.46-0.3-1.69c-2.88-4.15-5.22-6.12-5.22-6.12l0.53-5.12
	l2.38-1.1L530,191l-8-2L515.72,195.88z"/>
<path class="st2" d="M565.18,208.08l2.53-2.38l4.55-0.55c0,0,4.19,0.12,5.17-0.12c0.98-0.24,4.84-3.54,4.84-3.54l1-4.33l-3.49-1.46
	c0,0-0.98,0.24-1.96,0.49c-0.98,0.24-2.94,0.73-3.57,0.3c-0.63-0.43-3.27-2.68-3.27-2.68l3.92-0.97l-0.71,1.34l2.86,1.04
	c0,0,3.29-1.4,3.65-2.07s0.79-3.11,0.79-3.11l-2.78-2.8l-1.74-0.73l-4.68,0l-0.68-2.74c0,0-0.03-6.4,0.46-6.52
	c0.49-0.12-5.09-1.65-5.09-1.65l-5.01-3.41l-3.6-6.1l0.54-8.29l6.37-1.58c0,0,0.79-3.11,1-4.33s-1.85-5.36-2.48-5.79
	c-0.63-0.43-4.74-2.32-4.74-2.32l-4.33-0.67c0,0-2.8,1.28-3.92,0.97c-1.12-0.3-10.21,0.79-10.21,0.79l-0.84,0.79
	c0,0-1.36,5-1.85,5.12c-0.49,0.12-1.33,0.91-1.06,2.01s4.66,4.09,4.66,4.09s-0.57,1.89-0.38,4.75c0.19,2.87-1.71,5.67-1.58,6.22
	c0.14,0.55-1.33,0.91,0.96,3.84c2.29,2.93,2.15,2.38,3.27,2.68c1.12,0.3,1.12,0.3,2.23,0.61s0.98-0.24,1.66,2.5
	c0.68,2.74-0.02,4.08,0.11,4.63c0.14,0.55,0.14,0.55-1.55,2.13c-1.69,1.58-1.69,1.58-2.18,1.71c-0.49,0.12-0.9-1.52-2.04,2.26
	c-1.14,3.78-0.87,4.88-0.6,5.97s1.25,0.85,1.66,2.5c0.41,1.65,1.31,3.17,1.31,3.17s-1.06,2.01-1.06,2.01L546,205
	c0,0,2.58-0.95,3.69-0.64c1.12,0.3,1.61,0.18,1.39,1.4c-0.22,1.22-0.22,1.22-2.18,1.71c-1.96,0.49-1.47,0.37-3.43,0.85
	c-1.96,0.49-4.97,0.75-4.47,0.68c1.49-0.19-2.18-2.91-1.76,1.45c0.45,4.75,5.28,4.51,5.28,4.51s-0.49,0.12,1.25,0.85
	s1.61,0.18,2.72,0.49c1.12,0.3,2.1,0.06,4.06-0.43c1.96-0.49,3.43-0.85,5.39-1.34c1.96-0.49,2.67-1.83,3.92-0.97
	c1.25,0.85,4.33,0.67,4.33,0.67l3.1-4.27L565.18,208.08z"/>
<path class="st2" d="M248.65,227.01l-9,61l18.27,28.24l16,24l13,31l5,12c0,0,2,5.62,16,11c13,5-5-21-5-21l-2-10l18,7l17,29l21,21
	l64,12l22,19l-22,24l-4,39l21,22l14,26l4,47L451,643l2-1l3,3c0,0,19.34-20.38,21.92-31.75c5-22,11-40,11-40l32-19c0,0,36-46,36-50
	s-26-19-26-19l-15-33l-26,2l-17-8l-23-3l-27-22c0,0-6-20-16-22s-13-37-13-37l8-12l28-4l8,11l9,5c0,0,11,1-1-24s6-46,6-46l-6-27l8-38
	l8.66-10.66c6.1-6.1,4.5-16.38-3.17-20.33l-19.49-18.01h-25l-22.77,23.53c-4.59,4.75-11.02,7.26-17.62,6.88l-24.62-1.41
	l-18.54-17.05c-3.97-3.65-9.65-4.78-14.71-2.92l-21.75,7.98l-41,18"/>
<polygon class="st2" points="631.43,340.38 659.55,318.89 684.94,329.63 712.15,332.32 733.01,318.89 752.96,318.89 782.89,356.49 
	794.68,365.44 804.66,354.7 827.33,342.17 833.68,356.49 823.7,385.13 812.82,398.56 806.47,411.99 804.66,439.74 788.33,453.17 
	795.59,477.34 787.42,497.93 784.7,519.41 773.82,536.42 774.2,567.33 766.57,581.18 754.78,585.65 745.71,596.39 732.1,590.13 
	728.47,577.59 716.68,561.48 703.08,544.47 706.71,522.09 703.99,509.56 682.22,485.39 677.69,471.07 668.62,454.06 658.64,457.64 
	635.06,457.64 621.46,457.64 602.41,422.73 585.18,408.41 590.62,379.76 598.78,353.8 615.11,340.38 "/>
<path class="st1" d="M570.82,252.04l-7,9L571,280c0,0-6,17-3,17s13,0,13,0l-5.18,14.04l13,13l13,6L631,331l13-15l22-1l-9.18-34.96
	l-3-23l-6-9l20-11l10-22l16-5c0,0,14-2,14,0s20,17,20,17l24,11c0,0,14,4,11,6s-5,13-5,13l-3,16l-13,2l9,7c0,0,11.18,7.96,11.18,5.96
	s8.28-16.01,8.28-16.01l10-16L781,242l9,2l6-14l-26.18-4.96L752,212l3-28l26.82-10.96c0,0,18.18,10.96,18.18,8.96s12,18,13,17
	c0.41-0.41,0.48,1.02,0.43,2.85c-0.12,4.09,1.48,8.06,4.37,10.95v0c1.96,1.96,5.31,0.56,5.29-2.21
	c-0.13-14.39-1.99-46.12-15.05-62.27C790.82,127.04,761,100,761,100l-48-31l-50.18,29.04v20v29l-18,17l-6-1l-7-1l2-12l-8-4l-5,3v11
	l2,11l-21,9l-10,19l-6,8l10,10l13,17l10,9l-8,11l-11-5L570.82,252.04z"/>
<polygon class="st5" points="622.41,661.73 647.89,655 658,652 666,649 673.62,645.82 680.37,643.07 686.39,640.47 693.27,637.31 
	698.92,634.58 703.32,632.36 707.66,630.09 711.92,627.78 710.38,625.54 633,641 "/>
<polyline class="st5" points="497.83,664.8 503.1,665.66 504,662 493.64,657.2 494,660 495,662 497,663 498,664 "/>
<path class="st2" d="M566.64,251.71l-7,9l7.18,18.96c0,0-6,17-3,17s13,0,13,0l-5.18,14.04l13,13l13,6l29.18,0.96l13-15l22-1
	l-9.18-34.96l-3-23l-6-9l20-11l10-22l16-5c0,0,14-2,14,0s20,17,20,17l24,11c0,0,14,4,11,6s-5,13-5,13l-3,16l-13,2l9,7
	c0,0,11.18,7.96,11.18,5.96s8.28-16.01,8.28-16.01l10-16l0.72-13.99l9,2l6-14l-26.18-4.96l-17.82-13.04l3-28l26.82-10.96
	c0,0,18.18,10.96,18.18,8.96s12,18,13,17c0.41-0.41,0.48,1.02,0.43,2.85c-0.12,4.09,1.48,8.06,4.37,10.95l0,0
	c1.96,1.96,5.31,0.56,5.29-2.21c-0.13-14.39-1.99-46.12-15.05-62.27c-17.22-21.29-47.04-48.32-47.04-48.32l-48-31l-50.18,29.04v20
	v29l-18,17l-6-1l-7-1l2-12l-8-4l-5,3v11l2,11l-21,9l-10,19l-6,8l10,10l13,17l10,9l-8,11l-11-5L566.64,251.71z"/>
</svg>
